<svg width="216" height="440" viewBox="0 0 216 440" fill="none" xmlns="http://www.w3.org/2000/svg">
<g opacity="0.7" filter="url(#filter0_d_8313_358)">
<rect opacity="0.5" x="165" y="100" width="3" height="240" fill="white"/>
<rect x="165" y="100" width="3" height="60" fill="white"/>
<path d="M114.509 134.112C113.688 134.112 112.952 133.979 112.301 133.712C111.65 133.445 111.128 133.051 110.733 132.528C110.349 132.005 110.146 131.376 110.125 130.64H113.037C113.08 131.056 113.224 131.376 113.469 131.6C113.714 131.813 114.034 131.92 114.429 131.92C114.834 131.92 115.154 131.829 115.389 131.648C115.624 131.456 115.741 131.195 115.741 130.864C115.741 130.587 115.645 130.357 115.453 130.176C115.272 129.995 115.042 129.845 114.765 129.728C114.498 129.611 114.114 129.477 113.613 129.328C112.888 129.104 112.296 128.88 111.837 128.656C111.378 128.432 110.984 128.101 110.653 127.664C110.322 127.227 110.157 126.656 110.157 125.952C110.157 124.907 110.536 124.091 111.293 123.504C112.05 122.907 113.037 122.608 114.253 122.608C115.49 122.608 116.488 122.907 117.245 123.504C118.002 124.091 118.408 124.912 118.461 125.968H115.501C115.48 125.605 115.346 125.323 115.101 125.12C114.856 124.907 114.541 124.8 114.157 124.8C113.826 124.8 113.56 124.891 113.357 125.072C113.154 125.243 113.053 125.493 113.053 125.824C113.053 126.187 113.224 126.469 113.565 126.672C113.906 126.875 114.44 127.093 115.165 127.328C115.89 127.573 116.477 127.808 116.925 128.032C117.384 128.256 117.778 128.581 118.109 129.008C118.44 129.435 118.605 129.984 118.605 130.656C118.605 131.296 118.44 131.877 118.109 132.4C117.789 132.923 117.32 133.339 116.701 133.648C116.082 133.957 115.352 134.112 114.509 134.112ZM125.265 131.68V134H123.873C122.881 134 122.108 133.76 121.553 133.28C120.998 132.789 120.721 131.995 120.721 130.896V127.344H119.633V125.072H120.721V122.896H123.457V125.072H125.249V127.344H123.457V130.928C123.457 131.195 123.521 131.387 123.649 131.504C123.777 131.621 123.99 131.68 124.289 131.68H125.265ZM126.245 129.52C126.245 128.603 126.416 127.797 126.757 127.104C127.109 126.411 127.584 125.877 128.181 125.504C128.778 125.131 129.445 124.944 130.181 124.944C130.81 124.944 131.36 125.072 131.829 125.328C132.309 125.584 132.677 125.92 132.933 126.336V125.072H135.669V134H132.933V132.736C132.666 133.152 132.293 133.488 131.813 133.744C131.344 134 130.794 134.128 130.165 134.128C129.44 134.128 128.778 133.941 128.181 133.568C127.584 133.184 127.109 132.645 126.757 131.952C126.416 131.248 126.245 130.437 126.245 129.52ZM132.933 129.536C132.933 128.853 132.741 128.315 132.357 127.92C131.984 127.525 131.525 127.328 130.981 127.328C130.437 127.328 129.973 127.525 129.589 127.92C129.216 128.304 129.029 128.837 129.029 129.52C129.029 130.203 129.216 130.747 129.589 131.152C129.973 131.547 130.437 131.744 130.981 131.744C131.525 131.744 131.984 131.547 132.357 131.152C132.741 130.757 132.933 130.219 132.933 129.536ZM140.384 126.56C140.704 126.069 141.104 125.685 141.584 125.408C142.064 125.12 142.598 124.976 143.184 124.976V127.872H142.432C141.75 127.872 141.238 128.021 140.896 128.32C140.555 128.608 140.384 129.12 140.384 129.856V134H137.648V125.072H140.384V126.56ZM149.468 131.68V134H148.076C147.084 134 146.311 133.76 145.756 133.28C145.201 132.789 144.924 131.995 144.924 130.896V127.344H143.836V125.072H144.924V122.896H147.66V125.072H149.452V127.344H147.66V130.928C147.66 131.195 147.724 131.387 147.852 131.504C147.98 131.621 148.193 131.68 148.492 131.68H149.468Z" fill="white"/>
<path d="M134.267 192C134.267 190.165 134.619 188.72 135.323 187.664C136.038 186.608 137.184 186.08 138.763 186.08C140.342 186.08 141.483 186.608 142.187 187.664C142.902 188.72 143.259 190.165 143.259 192C143.259 193.856 142.902 195.312 142.187 196.368C141.483 197.424 140.342 197.952 138.763 197.952C137.184 197.952 136.038 197.424 135.323 196.368C134.619 195.312 134.267 193.856 134.267 192ZM140.571 192C140.571 190.923 140.454 190.096 140.219 189.52C139.984 188.933 139.499 188.64 138.763 188.64C138.027 188.64 137.542 188.933 137.307 189.52C137.072 190.096 136.955 190.923 136.955 192C136.955 192.725 136.998 193.328 137.083 193.808C137.168 194.277 137.339 194.661 137.595 194.96C137.862 195.248 138.251 195.392 138.763 195.392C139.275 195.392 139.659 195.248 139.915 194.96C140.182 194.661 140.358 194.277 140.443 193.808C140.528 193.328 140.571 192.725 140.571 192ZM144.416 188.864V186.32H148.848V198H146V188.864H144.416Z" fill="white"/>
<path d="M131.142 256C131.142 254.165 131.494 252.72 132.198 251.664C132.913 250.608 134.059 250.08 135.638 250.08C137.217 250.08 138.358 250.608 139.062 251.664C139.777 252.72 140.134 254.165 140.134 256C140.134 257.856 139.777 259.312 139.062 260.368C138.358 261.424 137.217 261.952 135.638 261.952C134.059 261.952 132.913 261.424 132.198 260.368C131.494 259.312 131.142 257.856 131.142 256ZM137.446 256C137.446 254.923 137.329 254.096 137.094 253.52C136.859 252.933 136.374 252.64 135.638 252.64C134.902 252.64 134.417 252.933 134.182 253.52C133.947 254.096 133.83 254.923 133.83 256C133.83 256.725 133.873 257.328 133.958 257.808C134.043 258.277 134.214 258.661 134.47 258.96C134.737 259.248 135.126 259.392 135.638 259.392C136.15 259.392 136.534 259.248 136.79 258.96C137.057 258.661 137.233 258.277 137.318 257.808C137.403 257.328 137.446 256.725 137.446 256ZM141.483 259.808C141.846 259.52 142.011 259.387 141.979 259.408C143.025 258.544 143.846 257.835 144.443 257.28C145.051 256.725 145.563 256.144 145.979 255.536C146.395 254.928 146.603 254.336 146.603 253.76C146.603 253.323 146.502 252.981 146.299 252.736C146.097 252.491 145.793 252.368 145.387 252.368C144.982 252.368 144.662 252.523 144.427 252.832C144.203 253.131 144.091 253.557 144.091 254.112H141.451C141.473 253.205 141.665 252.448 142.027 251.84C142.401 251.232 142.886 250.784 143.483 250.496C144.091 250.208 144.763 250.064 145.499 250.064C146.769 250.064 147.723 250.389 148.363 251.04C149.014 251.691 149.339 252.539 149.339 253.584C149.339 254.725 148.95 255.787 148.171 256.768C147.393 257.739 146.401 258.688 145.195 259.616H149.515V261.84H141.483V259.808Z" fill="white"/>
<path d="M130.595 320C130.595 318.165 130.947 316.72 131.651 315.664C132.366 314.608 133.512 314.08 135.091 314.08C136.67 314.08 137.811 314.608 138.515 315.664C139.23 316.72 139.587 318.165 139.587 320C139.587 321.856 139.23 323.312 138.515 324.368C137.811 325.424 136.67 325.952 135.091 325.952C133.512 325.952 132.366 325.424 131.651 324.368C130.947 323.312 130.595 321.856 130.595 320ZM136.899 320C136.899 318.923 136.782 318.096 136.547 317.52C136.312 316.933 135.827 316.64 135.091 316.64C134.355 316.64 133.87 316.933 133.635 317.52C133.4 318.096 133.283 318.923 133.283 320C133.283 320.725 133.326 321.328 133.411 321.808C133.496 322.277 133.667 322.661 133.923 322.96C134.19 323.248 134.579 323.392 135.091 323.392C135.603 323.392 135.987 323.248 136.243 322.96C136.51 322.661 136.686 322.277 136.771 321.808C136.856 321.328 136.899 320.725 136.899 320ZM141.129 317.616C141.171 316.475 141.545 315.595 142.249 314.976C142.953 314.357 143.907 314.048 145.113 314.048C145.913 314.048 146.595 314.187 147.161 314.464C147.737 314.741 148.169 315.12 148.457 315.6C148.755 316.08 148.905 316.619 148.905 317.216C148.905 317.92 148.729 318.496 148.377 318.944C148.025 319.381 147.614 319.68 147.145 319.84V319.904C147.753 320.107 148.233 320.443 148.585 320.912C148.937 321.381 149.113 321.984 149.113 322.72C149.113 323.381 148.958 323.968 148.649 324.48C148.35 324.981 147.907 325.376 147.321 325.664C146.745 325.952 146.057 326.096 145.257 326.096C143.977 326.096 142.953 325.781 142.185 325.152C141.427 324.523 141.027 323.573 140.985 322.304H143.641C143.651 322.773 143.785 323.147 144.041 323.424C144.297 323.691 144.67 323.824 145.161 323.824C145.577 323.824 145.897 323.707 146.121 323.472C146.355 323.227 146.473 322.907 146.473 322.512C146.473 322 146.307 321.632 145.977 321.408C145.657 321.173 145.139 321.056 144.424 321.056H143.913V318.832H144.424C144.969 318.832 145.406 318.741 145.737 318.56C146.078 318.368 146.249 318.032 146.249 317.552C146.249 317.168 146.142 316.869 145.929 316.656C145.715 316.443 145.422 316.336 145.049 316.336C144.643 316.336 144.339 316.459 144.137 316.704C143.945 316.949 143.833 317.253 143.801 317.616H141.129Z" fill="white"/>
</g>
<defs>
<filter id="filter0_d_8313_358" x="0" y="0" width="268" height="440" filterUnits="userSpaceOnUse" color-interpolation-filters="sRGB">
<feFlood flood-opacity="0" result="BackgroundImageFix"/>
<feColorMatrix in="SourceAlpha" type="matrix" values="0 0 0 0 0 0 0 0 0 0 0 0 0 0 0 0 0 0 127 0" result="hardAlpha"/>
<feOffset/>
<feGaussianBlur stdDeviation="50"/>
<feColorMatrix type="matrix" values="0 0 0 0 0 0 0 0 0 0 0 0 0 0 0 0 0 0 0.2 0"/>
<feBlend mode="normal" in2="BackgroundImageFix" result="effect1_dropShadow_8313_358"/>
<feBlend mode="normal" in="SourceGraphic" in2="effect1_dropShadow_8313_358" result="shape"/>
</filter>
</defs>
</svg>
